<svg width="757" height="665" viewBox="0 0 757 665" fill="none" xmlns="http://www.w3.org/2000/svg">
<path d="M520.661 141.408C511.658 132.493 500.712 125.785 488.681 121.81C476.649 117.834 463.861 116.7 451.32 118.496C424.839 122.511 401.443 139.473 374.786 142.078C344.523 145.081 316.113 129.272 287.495 119.022C258.876 108.772 222.586 105.65 202.13 128.104C184.83 147.069 185.741 177.304 169.568 197.23C156.099 213.714 134.064 219.7 115.098 229.348C83.6404 245.37 58.3304 274.804 51.2776 309.383C44.2248 343.962 57.3865 382.908 86.3987 403.049C117.936 424.926 162.465 423.245 191.265 448.61C210.643 465.699 219.08 491.829 234.637 512.444C260.823 547.125 308.785 563.74 350.815 552.687C372.301 547.042 391.826 534.961 413.608 530.599C469.974 519.231 526.686 561.185 583.355 551.233C628.434 543.357 663.89 498.957 661.733 453.248C660.129 419.802 641.021 388.81 640.928 355.343C640.794 327.223 653.989 301.025 660.977 273.764C667.966 246.503 666.698 213.199 644.546 195.871C629.925 184.442 610.178 183.084 592.12 178.824C563.801 172.141 540.926 162.344 520.711 141.427" fill="#ECECEC"/>
<path d="M256.973 65.1104L283.95 70.068L289.973 98.5859L295.995 70.068L322.973 65.0613L296.093 58.484L289.973 31.5859L283.804 58.484L256.973 65.1104Z" fill="#CFFFEB"/>
<path d="M85.8242 337.11L112.802 342.068L118.824 370.586L124.846 342.068L151.824 337.061L124.944 330.484L118.824 303.586L112.655 330.484L85.8242 337.11Z" fill="#CFFFEB"/>
<path d="M525.824 236.102L543.809 239.432L547.824 258.586L551.839 239.432L569.824 236.069L551.904 231.652L547.824 213.586L543.711 231.652L525.824 236.102Z" fill="#CFFFEB"/>
<path d="M660.195 487.755L660.482 472.37L675.87 466.353L659.36 465.711L654.046 451.27L652.867 466.722L638.398 472.667L654.012 473.516L660.195 487.755Z" fill="#7E40D6"/>
<path d="M53.6948 120.232L53.9816 104.846L69.37 98.8292L52.8595 98.1879L47.5462 83.7461L46.3673 99.1984L31.8984 105.144L47.5121 105.992L53.6948 120.232Z" fill="#7E40D6"/>
<path d="M118.844 490.232L119.131 474.846L134.519 468.829L118.009 468.188L112.696 453.746L111.517 469.198L97.0478 475.144L112.662 475.992L118.844 490.232Z" fill="#7E40D6"/>
<path d="M72.9736 230.595L83.6012 232.538L85.9736 243.586L88.3461 232.538L98.9736 230.595L88.4039 228.024L85.9736 217.586L83.5626 228.024L72.9736 230.595Z" fill="#CFFFEB"/>
<path d="M598.824 145.595L609.452 147.538L611.824 158.586L614.197 147.538L624.824 145.595L614.255 143.024L611.824 132.586L609.413 143.024L598.824 145.595Z" fill="#7E40D6"/>
<path d="M367.568 655.719L367.722 644.493L378.616 640.148L366.905 639.649L363.081 629.094L362.287 640.355L351.992 644.635L363.122 645.305L367.568 655.719Z" fill="#7E40D6"/>
<path d="M207.824 150.562L222.938 153.252L226.324 168.586L229.71 153.252L244.824 150.562L229.759 147.024L226.324 132.586L222.889 147.024L207.824 150.562Z" fill="#CFFFEB"/>
<path d="M249.849 489.974L249.989 474.623L264.547 468.736L248.864 467.945L243.7 453.488L242.714 468.932L229.048 474.718L243.856 475.706L249.849 489.974Z" fill="#CFFFEB"/>
<path d="M495.621 657.461L495.899 642.501L510.872 636.637L494.804 636.004L489.638 621.961L488.492 637.019L474.387 642.785L489.603 643.61L495.621 657.461Z" fill="#CFFFEB"/>
<path d="M20.9737 271.586C21.7972 271.664 22.5594 272.014 23.1133 272.568C23.6672 273.122 23.9736 273.841 23.9736 274.586C23.9736 275.331 23.6672 276.05 23.1133 276.604C22.5594 277.158 21.7972 277.508 20.9737 277.586C20.1501 277.508 19.3879 277.158 18.834 276.604C18.28 276.05 17.9736 275.331 17.9736 274.586C17.9736 273.841 18.28 273.122 18.834 272.568C19.3879 272.014 20.1501 271.664 20.9737 271.586V271.586Z" fill="#CFFFEB"/>
<path d="M458.824 237.586C459.648 237.664 460.41 238.014 460.964 238.568C461.518 239.122 461.824 239.841 461.824 240.586C461.824 241.331 461.518 242.05 460.964 242.604C460.41 243.158 459.648 243.508 458.824 243.586C458.001 243.508 457.238 243.158 456.685 242.604C456.131 242.05 455.824 241.331 455.824 240.586C455.824 239.841 456.131 239.122 456.685 238.568C457.238 238.014 458.001 237.664 458.824 237.586V237.586Z" fill="#7E40D6"/>
<path d="M156.474 318.527C157.137 318.527 157.773 318.791 158.241 319.26C158.71 319.728 158.974 320.364 158.974 321.027C158.974 321.69 158.71 322.326 158.241 322.795C157.773 323.264 157.137 323.527 156.474 323.527C155.811 323.527 155.175 323.264 154.706 322.795C154.237 322.326 153.974 321.69 153.974 321.027C153.974 320.364 154.237 319.728 154.706 319.26C155.175 318.791 155.811 318.527 156.474 318.527V318.527Z" fill="#CFFFEB"/>
<path d="M643.626 545.814C643.472 544.899 643.688 543.96 644.226 543.203C644.764 542.447 645.581 541.936 646.496 541.781C647.411 541.627 648.35 541.843 649.107 542.381C649.863 542.919 650.375 543.736 650.529 544.651C650.683 545.566 650.468 546.505 649.929 547.262C649.391 548.018 648.575 548.53 647.659 548.684C646.744 548.838 645.805 548.622 645.048 548.084C644.292 547.546 643.781 546.73 643.626 545.814V545.814Z" fill="#CFFFEB"/>
<path d="M114.324 98.5859C115.518 98.5859 116.662 99.0601 117.506 99.904C118.35 100.748 118.824 101.892 118.824 103.086C118.824 104.279 118.35 105.424 117.506 106.268C116.662 107.112 115.518 107.586 114.324 107.586C113.131 107.586 111.986 107.112 111.142 106.268C110.298 105.424 109.824 104.279 109.824 103.086C109.824 101.892 110.298 100.748 111.142 99.904C111.986 99.0601 113.131 98.5859 114.324 98.5859V98.5859Z" fill="#CFFFEB"/>
<path d="M548.474 64.5859C549.667 64.5859 550.812 65.0601 551.656 65.904C552.5 66.7479 552.974 67.8924 552.974 69.0859C552.974 70.2794 552.5 71.424 551.656 72.2679C550.812 73.1118 549.667 73.5859 548.474 73.5859C547.28 73.5859 546.136 73.1118 545.292 72.2679C544.448 71.424 543.974 70.2794 543.974 69.0859C543.974 67.8924 544.448 66.7479 545.292 65.904C546.136 65.0601 547.28 64.5859 548.474 64.5859V64.5859Z" fill="#7E40D6"/>
<path d="M340.019 567.57C339.93 566.333 340.257 565.118 340.938 564.161C341.619 563.203 342.606 562.571 343.708 562.385C344.811 562.199 345.95 562.474 346.907 563.155C347.865 563.836 348.572 564.876 348.894 566.075C348.983 567.312 348.655 568.527 347.974 569.484C347.293 570.442 346.306 571.074 345.204 571.26C344.102 571.446 342.962 571.172 342.005 570.49C341.048 569.809 340.34 568.769 340.019 567.57V567.57Z" fill="#7E40D6"/>
<path d="M12.9736 184.586C14.0717 184.691 15.0879 185.157 15.8264 185.896C16.5649 186.634 16.9736 187.592 16.9736 188.586C16.9736 189.579 16.5649 190.538 15.8264 191.276C15.0879 192.015 14.0717 192.481 12.9736 192.586C11.8756 192.481 10.8594 192.015 10.1209 191.276C9.38232 190.538 8.97363 189.579 8.97363 188.586C8.97363 187.592 9.38232 186.634 10.1209 185.896C10.8594 185.157 11.8756 184.691 12.9736 184.586V184.586Z" fill="#CFFFEB"/>
<path d="M472.824 80.5859C473.922 80.6905 474.938 81.157 475.677 81.8956C476.416 82.6341 476.824 83.5924 476.824 84.5859C476.824 85.5794 476.416 86.5377 475.677 87.2763C474.938 88.0148 473.922 88.4814 472.824 88.5859C471.726 88.4814 470.71 88.0148 469.971 87.2763C469.233 86.5377 468.824 85.5794 468.824 84.5859C468.824 83.5924 469.233 82.6341 469.971 81.8956C470.71 81.157 471.726 80.6905 472.824 80.5859V80.5859Z" fill="#7E40D6"/>
<path d="M155.474 247.527C156.402 247.527 157.292 247.843 157.949 248.406C158.605 248.969 158.974 249.732 158.974 250.527C158.974 251.323 158.605 252.086 157.949 252.649C157.292 253.211 156.402 253.527 155.474 253.527C154.545 253.527 153.655 253.211 152.999 252.649C152.342 252.086 151.974 251.323 151.974 250.527C151.974 249.732 152.342 248.969 152.999 248.406C153.655 247.843 154.545 247.527 155.474 247.527V247.527Z" fill="#CFFFEB"/>
<path d="M591.584 586.024C591.386 584.847 591.663 583.639 592.355 582.667C593.047 581.694 594.097 581.037 595.274 580.838C596.451 580.64 597.658 580.917 598.631 581.609C599.603 582.301 600.261 583.351 600.459 584.528C600.657 585.705 600.38 586.912 599.688 587.885C598.996 588.857 597.946 589.515 596.769 589.713C595.593 589.911 594.385 589.634 593.413 588.942C592.44 588.25 591.783 587.2 591.584 586.024V586.024Z" fill="#7E40D6"/>
<g opacity="0.1">
<path opacity="0.1" d="M646.086 332.979C645.147 332.749 644.689 331.458 645.009 330.104C645.328 328.75 646.371 327.833 647.299 328.064C648.228 328.295 648.698 329.596 648.377 330.939C648.056 332.282 647.015 333.21 646.086 332.979Z" fill="#7E40D6"/>
<path opacity="0.1" d="M643.575 327.191C643.051 327.062 642.786 326.297 642.991 325.487C643.197 324.677 643.787 324.121 644.311 324.25C644.834 324.378 645.089 325.145 644.896 325.964C644.704 326.784 644.074 327.312 643.575 327.191Z" fill="#7E40D6"/>
<path opacity="0.1" d="M620.147 348.152C619.35 347.955 618.945 346.837 619.235 345.648C619.525 344.459 620.416 343.658 621.214 343.855C622.011 344.051 622.418 345.18 622.117 346.371C621.816 347.562 620.906 348.32 620.147 348.152Z" fill="#7E40D6"/>
<path opacity="0.1" d="M618.742 344.352C618.519 344.256 618.341 344.078 618.245 343.854C618.15 343.629 618.145 343.377 618.232 343.15C618.228 343.023 618.254 342.897 618.306 342.782C618.359 342.667 618.438 342.566 618.537 342.487C618.635 342.407 618.751 342.351 618.875 342.324C618.998 342.297 619.127 342.298 619.249 342.329C619.372 342.359 619.487 342.418 619.583 342.499C619.68 342.581 619.756 342.684 619.806 342.801C619.856 342.917 619.879 343.043 619.872 343.17C619.865 343.296 619.829 343.419 619.767 343.53C619.734 343.772 619.609 343.992 619.418 344.145C619.228 344.298 618.986 344.372 618.742 344.352Z" fill="#7E40D6"/>
<path opacity="0.1" d="M620.623 343.383C620.485 343.32 620.375 343.206 620.318 343.066C620.26 342.925 620.258 342.767 620.313 342.625C620.412 342.266 620.68 342.027 620.941 342.086C621.076 342.153 621.182 342.268 621.237 342.408C621.292 342.548 621.293 342.704 621.24 342.845C621.185 343.197 620.873 343.443 620.623 343.383Z" fill="#7E40D6"/>
<path opacity="0.1" d="M618.422 330.061C618.039 330.075 617.662 329.969 617.343 329.758C617.024 329.547 616.778 329.242 616.642 328.884C616.505 328.527 616.484 328.135 616.58 327.765C616.677 327.395 616.888 327.064 617.182 326.82C617.476 326.575 617.84 326.429 618.221 326.401C618.603 326.373 618.984 326.466 619.31 326.666C619.637 326.865 619.893 327.162 620.042 327.515C620.191 327.867 620.226 328.257 620.142 328.631C620.1 329.047 619.896 329.43 619.574 329.698C619.253 329.965 618.839 330.096 618.422 330.061V330.061Z" fill="#7E40D6"/>
<path opacity="0.1" d="M621.412 330.09C621.203 330.025 621.026 329.883 620.919 329.692C620.812 329.501 620.781 329.277 620.835 329.064C620.888 328.852 621.021 328.668 621.206 328.551C621.391 328.434 621.614 328.392 621.829 328.434C622.038 328.499 622.215 328.641 622.323 328.832C622.43 329.023 622.46 329.248 622.407 329.46C622.353 329.672 622.22 329.856 622.035 329.973C621.85 330.09 621.627 330.132 621.412 330.09V330.09Z" fill="#7E40D6"/>
</g>
<path d="M411.256 139.032C417.855 139.385 424.356 140.112 430.686 141.134C437.19 142.202 443.552 143.571 449.736 145.264C453.218 146.213 455.262 149.805 454.313 153.286C453.577 155.96 451.275 157.789 448.675 158.06C419.553 161.481 393.343 175.261 374.077 195.807C355.119 216.002 342.891 242.722 341.235 272.507L341.21 272.716C339.403 306.347 351.35 337.53 372.2 360.792C393.023 384.046 422.699 399.336 456.31 401.231L456.519 401.255C480.727 402.551 503.63 396.749 523.253 385.611C543.56 374.098 560.309 356.897 571.253 336.099C572.929 332.902 576.887 331.695 580.055 333.363C582.462 334.646 583.76 337.208 583.517 339.766C578.811 388.483 555.238 431.207 520.51 461.028C485.944 490.706 440.28 507.621 391.186 504.911C340.661 502.133 296.052 479.143 264.761 444.246C233.464 409.255 215.499 362.423 218.275 311.901C220.986 262.565 242.966 218.866 276.502 187.713C310.185 156.475 355.51 137.807 404.691 138.781C405.646 138.786 406.745 138.829 407.938 138.866L407.967 138.874L411.256 139.032Z" fill="#7E40D6"/>
<path d="M270.824 450.082C298.657 443.248 362.824 444.381 396.824 503.582C379.824 507.582 314.324 497.082 270.824 450.082Z" fill="#928DED"/>
<circle cx="429.015" cy="483.015" r="9.01535" fill="#ECECEC"/>
</svg>